<svg xmlns="http://www.w3.org/2000/svg" viewBox="0 0 720 440" role="img" aria-labelledby="title desc">
<title id="title">五圣山南麓两高地</title><desc id="desc">1952-10-14—11-25 · 表面阵地—坑道—反击。依据档案制作的方位关系示意图，不代表精确比例或国界。</desc>
<defs><marker id="arrow" markerWidth="8" markerHeight="8" refX="6" refY="3" orient="auto"><path d="M0,0 L0,6 L7,3 z" fill="#b94f45"/></marker><filter id="paper"><feTurbulence baseFrequency=".8" numOctaves="3" stitchTiles="stitch" type="fractalNoise" result="n"/><feColorMatrix in="n" values="0 0 0 0 0.25 0 0 0 0 0.20 0 0 0 0 0.14 0 0 0 .08 0"/><feBlend in="SourceGraphic" mode="multiply"/></filter></defs>
<style>.label{font:600 14px system-ui,"Noto Sans SC",sans-serif;fill:#e9dcc1;paint-order:stroke;stroke:#211b16;stroke-width:3px}.area{font:12px system-ui,"Noto Sans SC",sans-serif;fill:#bfae88}.road{fill:none;stroke:#c8ae79;stroke-width:12;stroke-linecap:round;stroke-dasharray:18 5}.water{fill:none;stroke:#658d92;stroke-width:20;stroke-linecap:round;opacity:.9}.arrow{stroke:#b94f45;stroke-width:4;fill:none}.arrow-label{font:600 12px system-ui,"Noto Sans SC",sans-serif;fill:#e59a83;paint-order:stroke;stroke:#211b16;stroke-width:3px}.title{font:700 20px system-ui,"Noto Sans SC",sans-serif;fill:#f0e1c4}.sub{font:12px system-ui,"Noto Sans SC",sans-serif;fill:#b9a98c}</style>
<rect width="720" height="440" rx="16" fill="#29251f"/><path d="M0 80H720M0 160H720M0 240H720M0 320H720M120 0V440M240 0V440M360 0V440M480 0V440M600 0V440" stroke="#4a4235" stroke-width="1" opacity=".45"/>
<g filter="url(#paper)"><path d="M360 415 C345 315 370 235 360 140" class="road"/><rect x="190" y="170" width="340" height="150" rx="75" fill="#9d8c6630" stroke="#9d8c66" stroke-dasharray="7 7"/><text x="360" y="188" text-anchor="middle" class="area">3.7 km²核心战场</text><path d="M300 390 L280 250" class="arrow" marker-end="url(#arrow)"/><text x="290" y="312" text-anchor="middle" class="arrow-label">美7师方向</text><path d="M450 390 L450 270" class="arrow" marker-end="url(#arrow)"/><text x="450" y="322" text-anchor="middle" class="arrow-label">韩2师方向</text><path d="M348 63 L360 45 L372 63Z" fill="#87906c" stroke="#281f18"/><text x="376" y="60" class="label">五圣山纵深</text><path d="M258 223 L270 205 L282 223Z" fill="#87906c" stroke="#281f18"/><text x="286" y="220" class="label">597.9高地</text><path d="M443 243 L455 225 L467 243Z" fill="#87906c" stroke="#281f18"/><text x="471" y="240" class="label">537.7北山</text><rect x="342" y="297" width="16" height="16" rx="2" fill="#cda96b" stroke="#281f18"/><text x="366" y="310" class="label">上甘岭村 / 坑道后口</text><circle cx="360" cy="405" r="7" fill="#c47159" stroke="#281f18"/><text x="376" y="410" class="label">金化 / 进攻来向</text></g>
<rect x="16" y="14" width="688" height="50" rx="8" fill="#181511dd"/><text x="30" y="38" class="title">五圣山南麓两高地</text><text x="30" y="56" class="sub">1952-10-14—11-25 · 表面阵地—坑道—反击</text>
<g transform="translate(674 78)"><path d="M0 25V0" stroke="#e8d8b7" stroke-width="3" marker-end="url(#arrow)"/><text x="0" y="39" text-anchor="middle" class="sub">北</text></g>
<text x="16" y="427" class="sub">档案制图：方向关系示意 · 实线/虚线仅供关卡设计，不用于导航或领土表达</text>
</svg>